<svg width="20" height="20" viewBox="0 0 20 20" xmlns="http://www.w3.org/2000/svg"><path d="M13.3 1A9.8 9.8 0 0 0 1.1 7a9.4 9.4 0 0 0 6.2 12c5 1.5 10.3-1 12.1-5.8.2-.6-.1-1.3-.7-1.5-.7-.2-1.4.1-1.6.7a7.3 7.3 0 0 1-9 4.3 7 7 0 0 1-4.7-8.9 7.3 7.3 0 0 1 12-2.8L13 7.4c-.5.5-.3.8.3.8h5.5c.7 0 1.2-.5 1.2-1.1V1.8c0-.7-.4-.8-.9-.4l-2 2c-1-1-2.3-1.9-3.8-2.4z" fill="#000" fill-rule="evenodd"/></svg>65C16.83,16.33 14.61,18 12,18C8.69,18 6,15.31 6,12C6,8.69 8.69,6 12,6C13.66,6 15.14,6.69 16.22,7.78L13,11H20V4L17.65,6.35Z" /></svg>